# xmcd
#
# Track frame offsets:
#	150
#	12943
#	30732
#	43189
#	52822
#	70141
#	83943
#	118671
#	133719
#	148489
#	159181
#	170976
#	216226
#	241851
#	271600
#	296167
#	314983
#	335985
#
# Disc length: 4793 seconds
#
# Revision: 1
# Processed by: cddbd v1.5.2PL0 Copyright (c) Steve Scherf et al.
# Submitted via: EZCDAudioConverter 1.3.4.1
#
DISCID=1d12b712
DTITLE=Traffic Sounds - Yellow Sea Years
DYEAR=1968
DGENRE=Psychedelic Rock
TTITLE0=Lux
TTITLE1=El Gusano (Alice In Wormland)
TTITLE2=La Camita
TTITLE3=You Got To Be Sure!
TTITLE4=White Deal - Poco - Big Deal
TTITLE5=Suavecito
TTITLE6=Chicama Way
TTITLE7=Those Days Have Gone
TTITLE8=Solos
TTITLE9=Survival
TTITLE10=A Beautiful Day
TTITLE11=Marabunta
TTITLE12=Yesterdays Game
TTITLE13=Shy Pilot
TTITLE14=Meshkalina
TTITLE15=What You Need And What You Want
TTITLE16=Tibet's Suzettes (You Can't Appreciate A Gift From God)
TTITLE17=Inca Snow
EXTD=
EXTT0=
EXTT1=
EXTT2=
EXTT3=
EXTT4=
EXTT5=
EXTT6=
EXTT7=
EXTT8=
EXTT9=
EXTT10=
EXTT11=
EXTT12=
EXTT13=
EXTT14=
EXTT15=
EXTT16=
EXTT17=
PLAYORDER=
